<?xml version="1.0" encoding="UTF-8"?>
<svg id="Layer_2" data-name="Layer 2" xmlns="http://www.w3.org/2000/svg" viewBox="0 0 206.07 55.52">
  <defs>
    <style>
      .cls-1 {
        fill: #fff;
      }
    </style>
  </defs>
  <g id="Layer_1-2" data-name="Layer 1">
    <g>
      <path d="M110.63,0H0v55.52h110.63c15.33,0,27.76-12.43,27.76-27.76S125.97,0,110.63,0Z"/>
      <circle class="cls-1" cx="178.31" cy="27.76" r="27.76"/>
      <path class="cls-1" d="M70.21,16.58v-.07h-10.88v10.26h9.65c.17-.03.34,0,.52,0s.34-.03.52-.05h.2v-.02c2.49-.35,4.42-2.47,4.42-5.06s-1.93-4.71-4.42-5.06Z"/>
      <path class="cls-1" d="M28.53,17.37v-.07h-10.88v10.21h9.65c.17.02.34.05.52.05s.34-.03.52-.05h.2v-.02c2.49-.35,4.42-2.47,4.42-5.06s-1.93-4.71-4.42-5.06Z"/>
      <g>
        <circle class="cls-1" cx="110.1" cy="27.52" r="10.23"/>
        <path class="cls-1" d="M110.63,0H0v55.52h110.63c15.33,0,27.76-12.43,27.76-27.76S125.97,0,110.63,0ZM29.9,37.54l-.57.06c-.5.05-11.67,0-11.67,0v10.09H7.43V8.05h22.47c7.27,1.02,12.88,7.19,12.88,14.74s-5.61,13.73-12.88,14.75ZM84.45,46.89h-10.23l-4.72-10.09h-10.17v10.09h-10.23V7.26h22.47c7.27,1.02,12.88,7.2,12.88,14.75,0,4.91-2.38,9.23-6.05,11.94l6.05,12.95ZM110.1,47.97c-11.29,0-20.45-9.16-20.45-20.45s9.16-20.45,20.45-20.45,20.45,9.16,20.45,20.45-9.16,20.45-20.45,20.45Z"/>
      </g>
    </g>
  </g>
</svg>