<?xml version="1.0" encoding="UTF-8"?>
<svg id="Layer_2" data-name="Layer 2" xmlns="http://www.w3.org/2000/svg" viewBox="0 0 206.07 55.52">
  <defs>
    <style>
      .cls-1 {
        fill: #fff;
      }
    </style>
  </defs>
  <g id="Layer_1-2" data-name="Layer 1">
    <path class="cls-1" d="M110.63,0H0v55.52h110.63c15.33,0,27.76-12.43,27.76-27.76S125.97,0,110.63,0Z"/>
    <g>
      <path d="M110.1,7.07c-11.29,0-20.45,9.16-20.45,20.45s9.16,20.45,20.45,20.45,20.45-9.16,20.45-20.45-9.16-20.45-20.45-20.45ZM110.1,37.75c-5.65,0-10.23-4.58-10.23-10.23s4.58-10.23,10.23-10.23,10.23,4.58,10.23,10.23-4.58,10.23-10.23,10.23Z"/>
      <path d="M29.9,8.05v-.21H7.43v39.85h10.23v-10.09h8.66c.5.05.99.15,1.51.15s1.01-.1,1.51-.15h.57v-.06c7.27-1.02,12.88-7.2,12.88-14.75s-5.61-13.73-12.88-14.75ZM28.53,27.49v.02h-.2c-.17.02-.34.05-.52.05s-.34-.03-.52-.05h-9.65v-10.21h10.88v.07c2.49.35,4.42,2.47,4.42,5.06s-1.93,4.71-4.42,5.06Z"/>
      <path d="M84.45,22c0-7.55-5.61-13.73-12.88-14.75v-.21h-22.47v39.85h10.23v-10.09h8.66c.5.05.99.15,1.51.15.03,0,.06,0,.09,0l4.64,9.94h10.23l-6.05-12.95c3.66-2.71,6.05-7.03,6.05-11.94ZM59.33,16.51h10.88v.07c2.49.35,4.42,2.47,4.42,5.06s-1.93,4.71-4.42,5.06v.02h-.2c-.17.02-.34.05-.52.05s-.34-.03-.52-.05h-9.65v-10.21Z"/>
    </g>
    <circle class="cls-1" cx="178.31" cy="27.76" r="27.76"/>
  </g>
</svg>