<svg viewBox="0 0 280 60" fill="none" xmlns="http://www.w3.org/2000/svg">
  <!-- Text only logo -->
  <g id="prospot-text">
    <path d="M10 45V15H25C32 15 37 20 37 27.5C37 35 32 40 25 40H20V45H10ZM20 30H25C26.5 30 28 28.5 28 27C28 25.5 26.5 24 25 24H20V30Z" fill="currentColor"/>
    <path d="M45 45V15H60C67 15 72 20 72 27.5C72 31 70.5 34 68 36L72 45H61L58 38H55V45H45ZM55 30H60C61.5 30 63 28.5 63 27C63 25.5 61.5 24 60 24H55V30Z" fill="currentColor"/>
    <path d="M80 35C80 25 88 15 98 15C108 15 116 25 116 35C116 45 108 55 98 55C88 55 80 45 80 35ZM90 35C90 40 93 43 98 43C103 43 106 40 106 35C106 30 103 27 98 27C93 27 90 30 90 35Z" fill="currentColor"/>
    <path d="M140 35C140 30 143 27 148 27C151 27 153 28 154 30L161 26C158 20 152 17 145 17C135 17 127 25 127 35C127 45 135 53 145 53C152 53 158 50 161 44L154 40C153 42 151 43 148 43C143 43 140 40 140 35Z" fill="currentColor"/>
    <path d="M170 45V15H185C192 15 197 20 197 27.5C197 35 192 40 185 40H180V45H170ZM180 30H185C186.5 30 188 28.5 188 27C188 25.5 186.5 24 185 24H180V30Z" fill="currentColor"/>
    <path d="M205 35C205 25 213 15 223 15C233 15 241 25 241 35C241 45 233 55 223 55C213 55 205 45 205 35ZM215 35C215 40 218 43 223 43C228 43 231 40 231 35C231 30 228 27 223 27C218 27 215 30 215 35Z" fill="currentColor"/>
    <path d="M255 45V25H245V15H275V25H265V45H255Z" fill="currentColor"/>
  </g>
</svg>